<svg xmlns="http://www.w3.org/2000/svg" viewBox="0 0 192 128" width="192" height="128" shape-rendering="crispEdges">
  <metadata>Generated pixel-art inspired game asset for Red Dust demo.</metadata>
  
  <rect x="0" y="0" width="192" height="128" fill="#2b211b"/>
  <rect x="8" y="8" width="176" height="112" fill="#07090b" opacity="0.55"/>
  <line x1="8" y1="8" x2="184" y2="8" stroke="#ffb15f" stroke-width="4" opacity="0.72"/>
  <line x1="8" y1="120" x2="184" y2="120" stroke="#4a382c" stroke-width="6" opacity="0.82"/>
  <rect x="176" y="16" width="8" height="4" fill="#71808a" opacity="0.32"/>
  <rect x="21" y="39" width="12" height="8" fill="#c99058" opacity="0.32"/>
  <rect x="58" y="62" width="4" height="4" fill="#a8482a" opacity="0.32"/>
  <rect x="95" y="85" width="8" height="8" fill="#71808a" opacity="0.32"/>
  <rect x="132" y="108" width="12" height="4" fill="#c99058" opacity="0.32"/>
  <rect x="169" y="3" width="4" height="8" fill="#a8482a" opacity="0.32"/>
  <rect x="14" y="26" width="8" height="4" fill="#71808a" opacity="0.32"/>
  <rect x="51" y="49" width="12" height="8" fill="#c99058" opacity="0.32"/>
  <rect x="88" y="72" width="4" height="4" fill="#a8482a" opacity="0.32"/>
  <rect x="125" y="95" width="8" height="8" fill="#71808a" opacity="0.32"/>
  <rect x="162" y="118" width="12" height="4" fill="#c99058" opacity="0.32"/>
  <rect x="7" y="13" width="4" height="8" fill="#a8482a" opacity="0.32"/>
  <rect x="44" y="36" width="8" height="4" fill="#71808a" opacity="0.32"/>
  <rect x="81" y="59" width="12" height="8" fill="#c99058" opacity="0.32"/>
  <rect x="118" y="82" width="4" height="4" fill="#a8482a" opacity="0.32"/>
  <rect x="155" y="105" width="8" height="8" fill="#71808a" opacity="0.32"/>
  <rect x="0" y="0" width="12" height="4" fill="#c99058" opacity="0.32"/>
  <rect x="37" y="23" width="4" height="8" fill="#a8482a" opacity="0.32"/>
  <rect x="74" y="46" width="8" height="4" fill="#71808a" opacity="0.32"/>
  <rect x="111" y="69" width="12" height="8" fill="#c99058" opacity="0.32"/>
  <rect x="148" y="92" width="4" height="4" fill="#a8482a" opacity="0.32"/>
  <rect x="185" y="115" width="8" height="8" fill="#71808a" opacity="0.32"/>
  <rect x="30" y="10" width="12" height="4" fill="#c99058" opacity="0.32"/>
  <rect x="67" y="33" width="4" height="8" fill="#a8482a" opacity="0.32"/>
  <rect x="104" y="56" width="8" height="4" fill="#71808a" opacity="0.32"/>
  <rect x="141" y="79" width="12" height="8" fill="#c99058" opacity="0.32"/>
  <rect x="178" y="102" width="4" height="4" fill="#a8482a" opacity="0.32"/>
  <rect x="23" y="125" width="8" height="8" fill="#71808a" opacity="0.32"/>
  <rect x="60" y="20" width="12" height="4" fill="#c99058" opacity="0.32"/>
  <rect x="97" y="43" width="4" height="8" fill="#a8482a" opacity="0.32"/>
  <rect x="134" y="66" width="8" height="4" fill="#71808a" opacity="0.32"/>
  <rect x="171" y="89" width="12" height="8" fill="#c99058" opacity="0.32"/>
  <rect x="16" y="112" width="4" height="4" fill="#a8482a" opacity="0.32"/>
  <rect x="53" y="7" width="8" height="8" fill="#71808a" opacity="0.32"/>
  <text x="14" y="24" fill="#ffb15f" font-family="monospace" font-size="10" font-weight="700">TASK WALL MODULE</text>
<rect x="28" y="38" width="124" height="64" fill="#c4ad82" opacity="0.85"/><rect x="42" y="52" width="22" height="16" fill="#ffd60a"/><rect x="72" y="58" width="26" height="18" fill="#8feaff"/><rect x="106" y="50" width="28" height="22" fill="#e84545" opacity="0.8"/>
</svg>
