<?xml version="1.0" encoding="UTF-8"?>
<svg xmlns="http://www.w3.org/2000/svg" viewBox="0 0 960 540" role="img" aria-label="SIGNAL OR TRAP">
  <rect width="960" height="540" fill="#090b0d"/>
  <defs>
    <linearGradient id="bg1" x1="0" x2="1" y1="0" y2="1">
      <stop offset="0" stop-color="#211510"/>
      <stop offset=".56" stop-color="#3a2116"/>
      <stop offset="1" stop-color="#0b0d10"/>
    </linearGradient>
    <filter id="rough1">
      <feTurbulence baseFrequency=".035" numOctaves="2" seed="18"/>
      <feDisplacementMap in="SourceGraphic" scale="1.8"/>
    </filter>
  </defs>
  <rect x="28" y="28" width="904" height="484" rx="12" fill="url(#bg1)" stroke="#c99058" stroke-width="4"/>
  <path d="M28 360c160-42 260 26 406-30 154-60 284 52 498-26v208H28z" fill="#120f0d" opacity=".72"/>
  <path d="M66 104h858M66 456h858" stroke="#ffd60a" stroke-dasharray="9 16" opacity=".18"/>
  <path d="M80 122l112-44h132l44 78h-92l-36-38-82 60z" fill="#d05a2a" opacity=".17"/>
  <path d="M63 103h24" stroke="#d05a2a" stroke-width="1" opacity="0.08"/><path d="M136 144h35" stroke="#d05a2a" stroke-width="2" opacity="0.115"/><path d="M209 185h46" stroke="#d05a2a" stroke-width="3" opacity="0.15000000000000002"/><path d="M282 226h57" stroke="#d05a2a" stroke-width="1" opacity="0.185"/><path d="M355 267h68" stroke="#d05a2a" stroke-width="2" opacity="0.08"/><path d="M428 308h79" stroke="#d05a2a" stroke-width="3" opacity="0.115"/><path d="M501 349h90" stroke="#d05a2a" stroke-width="1" opacity="0.15000000000000002"/><path d="M574 390h101" stroke="#d05a2a" stroke-width="2" opacity="0.185"/><path d="M647 431h26" stroke="#d05a2a" stroke-width="3" opacity="0.08"/><path d="M720 74h37" stroke="#d05a2a" stroke-width="1" opacity="0.115"/><path d="M793 115h48" stroke="#d05a2a" stroke-width="2" opacity="0.15000000000000002"/><path d="M866 156h59" stroke="#d05a2a" stroke-width="3" opacity="0.185"/><path d="M63 197h70" stroke="#d05a2a" stroke-width="1" opacity="0.08"/><path d="M136 238h81" stroke="#d05a2a" stroke-width="2" opacity="0.115"/><path d="M209 279h92" stroke="#d05a2a" stroke-width="3" opacity="0.15000000000000002"/><path d="M282 320h103" stroke="#d05a2a" stroke-width="1" opacity="0.185"/><path d="M355 361h28" stroke="#d05a2a" stroke-width="2" opacity="0.08"/><path d="M428 402h39" stroke="#d05a2a" stroke-width="3" opacity="0.115"/><path d="M501 443h50" stroke="#d05a2a" stroke-width="1" opacity="0.15000000000000002"/><path d="M574 86h61" stroke="#d05a2a" stroke-width="2" opacity="0.185"/><path d="M647 127h72" stroke="#d05a2a" stroke-width="3" opacity="0.08"/><path d="M720 168h83" stroke="#d05a2a" stroke-width="1" opacity="0.115"/><path d="M793 209h94" stroke="#d05a2a" stroke-width="2" opacity="0.15000000000000002"/><path d="M866 250h105" stroke="#d05a2a" stroke-width="3" opacity="0.185"/><path d="M63 291h30" stroke="#d05a2a" stroke-width="1" opacity="0.08"/><path d="M136 332h41" stroke="#d05a2a" stroke-width="2" opacity="0.115"/><path d="M209 373h52" stroke="#d05a2a" stroke-width="3" opacity="0.15000000000000002"/><path d="M282 414h63" stroke="#d05a2a" stroke-width="1" opacity="0.185"/><path d="M355 455h74" stroke="#d05a2a" stroke-width="2" opacity="0.08"/><path d="M428 98h85" stroke="#d05a2a" stroke-width="3" opacity="0.115"/><path d="M501 139h96" stroke="#d05a2a" stroke-width="1" opacity="0.15000000000000002"/><path d="M574 180h107" stroke="#d05a2a" stroke-width="2" opacity="0.185"/><path d="M647 221h32" stroke="#d05a2a" stroke-width="3" opacity="0.08"/><path d="M720 262h43" stroke="#d05a2a" stroke-width="1" opacity="0.115"/>
  <rect x="70" y="76" width="160" height="90" rx="5" fill="#381a13" stroke="#d05a2a" stroke-width="4" opacity=".82"/>
  <path d="M82 98l136 46M218 98L82 144" stroke="#d9c7ad" stroke-width="5" opacity=".36"/>
  <path d="M44 44h868v448H44z" fill="none" stroke="#5dbfd9" stroke-width="1.5" opacity=".35"/>
  <g filter="url(#rough1)">
        <g>
    <rect x="144" y="366" width="260" height="42" rx="4" fill="#442818" stroke="#c99058" stroke-width="4"/>
    <rect x="180" y="288" width="150" height="90" rx="8" fill="#172027" stroke="#5dbfd9" stroke-width="4"/>
    <circle cx="218" cy="332" r="24" fill="#071216" stroke="#5dbfd9" stroke-width="5"/>
    <path d="M270 308h42M270 332h42M270 356h28" stroke="#d9c7ad" stroke-width="5" opacity=".65"/>
    <path d="M330 308c42-62 92-62 136 0M350 336c32-38 70-38 104 0" fill="none" stroke="#5dbfd9" stroke-width="8" stroke-linecap="round" opacity=".75"/>
    <path d="M192 286l-34-58" stroke="#71808a" stroke-width="5"/>
  </g>
        <g>
    <rect x="610" y="170" width="220" height="160" rx="6" fill="#d9c7ad" stroke="#c99058" stroke-width="5"/>
    <path d="M638 296C680 230,724 314,790 216" fill="none" stroke="#3a2116" stroke-width="7" stroke-linecap="round"/>
    <path d="M652 212l146 104" stroke="#e84545" stroke-width="7" stroke-linecap="round" opacity=".75"/>
    <circle cx="764" cy="236" r="18" fill="none" stroke="#5dbfd9" stroke-width="7"/>
    <text x="634" y="200" fill="#3a2116" font-family="Courier New, monospace" font-size="16" font-weight="800" text-anchor="start">MAP</text>
  </g>
        <g transform="translate(452 278)">
    <rect x="14" y="0" width="28" height="7" fill="#c0b090" />
    <rect x="7" y="7" width="42" height="7" fill="#c0b090" />
    <rect x="7" y="14" width="42" height="21" fill="#d4956a" />
    <rect x="14" y="21" width="7" height="7" fill="#171717" />
    <rect x="35" y="21" width="7" height="7" fill="#171717" />
    <rect x="0" y="21" width="7" height="21" fill="#d4956a" />
    <rect x="49" y="35" width="7" height="35" fill="#d4956a" />
    <rect x="7" y="35" width="42" height="28" fill="#6f5c3e" />
    <rect x="14" y="63" width="14" height="21" fill="#34312d" />
    <rect x="35" y="63" width="14" height="21" fill="#34312d" />
    <rect x="7" y="84" width="21" height="7" fill="#111" />
    <rect x="35" y="84" width="21" height="7" fill="#111" />
  </g>
        <g transform="translate(548 304)">
    <rect x="11.479999999999999" y="0" width="22.959999999999997" height="5.739999999999999" fill="#34312d" />
    <rect x="5.739999999999999" y="5.739999999999999" width="34.44" height="5.739999999999999" fill="#34312d" />
    <rect x="5.739999999999999" y="11.479999999999999" width="34.44" height="17.22" fill="#d4956a" />
    <rect x="11.479999999999999" y="17.22" width="5.739999999999999" height="5.739999999999999" fill="#171717" />
    <rect x="28.699999999999996" y="17.22" width="5.739999999999999" height="5.739999999999999" fill="#171717" />
    <rect x="0" y="28.699999999999996" width="5.739999999999999" height="17.22" fill="#d4956a" />
    <rect x="40.17999999999999" y="28.699999999999996" width="5.739999999999999" height="17.22" fill="#d4956a" />
    <rect x="5.739999999999999" y="28.699999999999996" width="34.44" height="22.959999999999997" fill="#7d6a39" />
    <rect x="11.479999999999999" y="51.66" width="11.479999999999999" height="17.22" fill="#34312d" />
    <rect x="28.699999999999996" y="51.66" width="11.479999999999999" height="17.22" fill="#34312d" />
    <rect x="5.739999999999999" y="68.88" width="17.22" height="5.739999999999999" fill="#111" />
    <rect x="28.699999999999996" y="68.88" width="17.22" height="5.739999999999999" fill="#111" />
  </g>
        <path d="M382 188c120-92 238-70 314 0" fill="none" stroke="#5dbfd9" stroke-width="9" stroke-linecap="round" opacity=".55"/>
        <text x="430" y="166" fill="#5dbfd9" font-family="Courier New, monospace" font-size="20" font-weight="800" text-anchor="start">RESCUE?</text>
        <text x="562" y="166" fill="#e84545" font-family="Courier New, monospace" font-size="20" font-weight="800" text-anchor="start">TRAP?</text>
      </g>
  <g>
    <rect x="70" y="58" width="424" height="84" rx="8" fill="#0b0d10" opacity=".7" stroke="#5dbfd9" stroke-width="2"/>
    <text x="92" y="91" fill="#5dbfd9" font-family="Courier New, monospace" font-size="22" font-weight="800" text-anchor="start">DAY 4</text>
    <text x="92" y="126" fill="#fff1dc" font-family="Georgia, serif" font-size="32" font-weight="700">SIGNAL OR TRAP</text>
    <rect x="70" y="462" width="820" height="40" rx="6" fill="#0b0d10" opacity=".68" stroke="#c99058" stroke-width="1.5"/>
    <text x="92" y="488" fill="#b7a083" font-family="Courier New, monospace" font-size="18" font-weight="700" text-anchor="start">Blue-zone wave and false coordinate evidence.</text>
  </g>
</svg>