<?xml version="1.0" encoding="UTF-8"?>
<svg xmlns="http://www.w3.org/2000/svg" viewBox="0 0 960 540" role="img" aria-label="PUBLIC ROUTE COUNCIL">
  <rect width="960" height="540" fill="#090b0d"/>
  <defs>
    <linearGradient id="bg2" x1="0" x2="1" y1="0" y2="1">
      <stop offset="0" stop-color="#211510"/>
      <stop offset=".56" stop-color="#3a2116"/>
      <stop offset="1" stop-color="#0b0d10"/>
    </linearGradient>
    <filter id="rough2">
      <feTurbulence baseFrequency=".035" numOctaves="2" seed="19"/>
      <feDisplacementMap in="SourceGraphic" scale="1.8"/>
    </filter>
  </defs>
  <rect x="28" y="28" width="904" height="484" rx="12" fill="url(#bg2)" stroke="#c99058" stroke-width="4"/>
  <path d="M28 360c160-42 260 26 406-30 154-60 284 52 498-26v208H28z" fill="#120f0d" opacity=".72"/>
  <path d="M66 104h858M66 456h858" stroke="#ffd60a" stroke-dasharray="9 16" opacity=".18"/>
  <path d="M80 122l112-44h132l44 78h-92l-36-38-82 60z" fill="#d05a2a" opacity=".17"/>
  <path d="M82 134h24" stroke="#d05a2a" stroke-width="1" opacity="0.08"/><path d="M155 175h35" stroke="#d05a2a" stroke-width="2" opacity="0.115"/><path d="M228 216h46" stroke="#d05a2a" stroke-width="3" opacity="0.15000000000000002"/><path d="M301 257h57" stroke="#d05a2a" stroke-width="1" opacity="0.185"/><path d="M374 298h68" stroke="#d05a2a" stroke-width="2" opacity="0.08"/><path d="M447 339h79" stroke="#d05a2a" stroke-width="3" opacity="0.115"/><path d="M520 380h90" stroke="#d05a2a" stroke-width="1" opacity="0.15000000000000002"/><path d="M593 421h101" stroke="#d05a2a" stroke-width="2" opacity="0.185"/><path d="M666 462h26" stroke="#d05a2a" stroke-width="3" opacity="0.08"/><path d="M739 105h37" stroke="#d05a2a" stroke-width="1" opacity="0.115"/><path d="M812 146h48" stroke="#d05a2a" stroke-width="2" opacity="0.15000000000000002"/><path d="M885 187h59" stroke="#d05a2a" stroke-width="3" opacity="0.185"/><path d="M82 228h70" stroke="#d05a2a" stroke-width="1" opacity="0.08"/><path d="M155 269h81" stroke="#d05a2a" stroke-width="2" opacity="0.115"/><path d="M228 310h92" stroke="#d05a2a" stroke-width="3" opacity="0.15000000000000002"/><path d="M301 351h103" stroke="#d05a2a" stroke-width="1" opacity="0.185"/><path d="M374 392h28" stroke="#d05a2a" stroke-width="2" opacity="0.08"/><path d="M447 433h39" stroke="#d05a2a" stroke-width="3" opacity="0.115"/><path d="M520 76h50" stroke="#d05a2a" stroke-width="1" opacity="0.15000000000000002"/><path d="M593 117h61" stroke="#d05a2a" stroke-width="2" opacity="0.185"/><path d="M666 158h72" stroke="#d05a2a" stroke-width="3" opacity="0.08"/><path d="M739 199h83" stroke="#d05a2a" stroke-width="1" opacity="0.115"/><path d="M812 240h94" stroke="#d05a2a" stroke-width="2" opacity="0.15000000000000002"/><path d="M885 281h105" stroke="#d05a2a" stroke-width="3" opacity="0.185"/><path d="M82 322h30" stroke="#d05a2a" stroke-width="1" opacity="0.08"/><path d="M155 363h41" stroke="#d05a2a" stroke-width="2" opacity="0.115"/><path d="M228 404h52" stroke="#d05a2a" stroke-width="3" opacity="0.15000000000000002"/><path d="M301 445h63" stroke="#d05a2a" stroke-width="1" opacity="0.185"/><path d="M374 88h74" stroke="#d05a2a" stroke-width="2" opacity="0.08"/><path d="M447 129h85" stroke="#d05a2a" stroke-width="3" opacity="0.115"/><path d="M520 170h96" stroke="#d05a2a" stroke-width="1" opacity="0.15000000000000002"/><path d="M593 211h107" stroke="#d05a2a" stroke-width="2" opacity="0.185"/><path d="M666 252h32" stroke="#d05a2a" stroke-width="3" opacity="0.08"/><path d="M739 293h43" stroke="#d05a2a" stroke-width="1" opacity="0.115"/>
  <rect x="70" y="76" width="160" height="90" rx="5" fill="#381a13" stroke="#d05a2a" stroke-width="4" opacity=".82"/>
  <path d="M82 98l136 46M218 98L82 144" stroke="#d9c7ad" stroke-width="5" opacity=".36"/>
  <path d="M44 44h868v448H44z" fill="none" stroke="#ffd60a" stroke-width="1.5" opacity=".35"/>
  <g filter="url(#rough2)">
        <g>
    <rect x="170" y="102" width="560" height="270" rx="8" fill="#d9c7ad" stroke="#c99058" stroke-width="5"/>
    <text x="194" y="140" fill="#3a2116" font-family="Courier New, monospace" font-size="20" font-weight="800" text-anchor="start">RESCUE  VS  LIGHTHOUSE</text>
    <path d="M194 158L706 158" stroke="#6b4f3a" stroke-width="4" />
    <path d="M206 194L694 194" stroke="#ffd60a" stroke-width="8" stroke-linecap="round" opacity=".72"/>
    <path d="M206 232L644 232" stroke="#6b4f3a" stroke-width="6" stroke-linecap="round" opacity=".7"/>
    <path d="M206 270L678 270" stroke="#6b4f3a" stroke-width="6" stroke-linecap="round" opacity=".7"/>
    <circle cx="684" cy="228" r="18" fill="none" stroke="#ffd60a" stroke-width="6"/>
  </g>
        <path d="M450 154L450 344" stroke="#d05a2a" stroke-width="5" stroke-dasharray="10 10"/>
        <text x="230" y="206" fill="#5dbfd9" font-family="Courier New, monospace" font-size="18" font-weight="800" text-anchor="start">BEACON / FILES / EXPOSURE</text>
        <text x="490" y="206" fill="#ffd60a" font-family="Courier New, monospace" font-size="18" font-weight="800" text-anchor="start">LOW POWER / RULES / OVERRIDE</text>
        <g transform="translate(160 350)">
    <rect x="12.88" y="0" width="25.76" height="6.44" fill="#3a2116" />
    <rect x="6.44" y="6.44" width="38.64" height="6.44" fill="#3a2116" />
    <rect x="6.44" y="12.88" width="38.64" height="19.32" fill="#d4956a" />
    <rect x="12.88" y="19.32" width="6.44" height="6.44" fill="#171717" />
    <rect x="32.2" y="19.32" width="6.44" height="6.44" fill="#171717" />
    <rect x="0" y="19.32" width="6.44" height="19.32" fill="#d4956a" />
    <rect x="45.080000000000005" y="32.2" width="6.44" height="32.2" fill="#d4956a" />
    <rect x="6.44" y="32.2" width="38.64" height="25.76" fill="#8a5a3a" />
    <rect x="12.88" y="57.96" width="12.88" height="19.32" fill="#34312d" />
    <rect x="32.2" y="57.96" width="12.88" height="19.32" fill="#34312d" />
    <rect x="6.44" y="77.28" width="19.32" height="6.44" fill="#111" />
    <rect x="32.2" y="77.28" width="19.32" height="6.44" fill="#111" />
  </g>
        <g transform="translate(302 356)">
    <rect x="12.88" y="0" width="25.76" height="6.44" fill="#211" />
    <rect x="6.44" y="6.44" width="38.64" height="6.44" fill="#211" />
    <rect x="6.44" y="12.88" width="38.64" height="19.32" fill="#d4956a" />
    <rect x="12.88" y="19.32" width="6.44" height="6.44" fill="#171717" />
    <rect x="32.2" y="19.32" width="6.44" height="6.44" fill="#171717" />
    <rect x="0" y="32.2" width="6.44" height="19.32" fill="#d4956a" />
    <rect x="45.080000000000005" y="32.2" width="6.44" height="19.32" fill="#d4956a" />
    <rect x="6.44" y="32.2" width="38.64" height="25.76" fill="#5a6e74" />
    <rect x="12.88" y="57.96" width="12.88" height="19.32" fill="#34312d" />
    <rect x="32.2" y="57.96" width="12.88" height="19.32" fill="#34312d" />
    <rect x="6.44" y="77.28" width="19.32" height="6.44" fill="#111" />
    <rect x="32.2" y="77.28" width="19.32" height="6.44" fill="#111" />
  </g>
        <g transform="translate(472 378)">
    <rect x="10.36" y="0" width="20.72" height="5.18" fill="#34312d" />
    <rect x="5.18" y="5.18" width="31.08" height="5.18" fill="#34312d" />
    <rect x="5.18" y="10.36" width="31.08" height="15.54" fill="#d4956a" />
    <rect x="10.36" y="15.54" width="5.18" height="5.18" fill="#171717" />
    <rect x="25.9" y="15.54" width="5.18" height="5.18" fill="#171717" />
    <rect x="0" y="25.9" width="5.18" height="15.54" fill="#d4956a" />
    <rect x="36.26" y="25.9" width="5.18" height="15.54" fill="#d4956a" />
    <rect x="5.18" y="25.9" width="31.08" height="20.72" fill="#7d6a39" />
    <rect x="10.36" y="46.62" width="10.36" height="15.54" fill="#34312d" />
    <rect x="25.9" y="46.62" width="10.36" height="15.54" fill="#34312d" />
    <rect x="5.18" y="62.16" width="15.54" height="5.18" fill="#111" />
    <rect x="25.9" y="62.16" width="15.54" height="5.18" fill="#111" />
  </g>
        <g transform="translate(640 350)">
    <rect x="12.88" y="0" width="25.76" height="6.44" fill="#c0b090" />
    <rect x="6.44" y="6.44" width="38.64" height="6.44" fill="#c0b090" />
    <rect x="6.44" y="12.88" width="38.64" height="19.32" fill="#d4956a" />
    <rect x="12.88" y="19.32" width="6.44" height="6.44" fill="#171717" />
    <rect x="32.2" y="19.32" width="6.44" height="6.44" fill="#171717" />
    <rect x="0" y="19.32" width="6.44" height="19.32" fill="#d4956a" />
    <rect x="45.080000000000005" y="32.2" width="6.44" height="32.2" fill="#d4956a" />
    <rect x="6.44" y="32.2" width="38.64" height="25.76" fill="#6f5c3e" />
    <rect x="12.88" y="57.96" width="12.88" height="19.32" fill="#34312d" />
    <rect x="32.2" y="57.96" width="12.88" height="19.32" fill="#34312d" />
    <rect x="6.44" y="77.28" width="19.32" height="6.44" fill="#111" />
    <rect x="32.2" y="77.28" width="19.32" height="6.44" fill="#111" />
  </g>
        <g>
    <rect x="748" y="228" width="180" height="150" rx="10" fill="#152328" stroke="#ffd60a" stroke-width="4"/>
    <circle cx="838" cy="300" r="44" fill="#071216" stroke="#ffd60a" stroke-width="6"/>
    <circle cx="838" cy="300" r="18" fill="#ffd60a" opacity=".65"/>
    <path d="M784 248h108M784 360h108" stroke="#b7a083" stroke-width="5" opacity=".45"/>
    
  </g>
      </g>
  <g>
    <rect x="70" y="58" width="424" height="84" rx="8" fill="#0b0d10" opacity=".7" stroke="#ffd60a" stroke-width="2"/>
    <text x="92" y="91" fill="#ffd60a" font-family="Courier New, monospace" font-size="22" font-weight="800" text-anchor="start">DAY 7</text>
    <text x="92" y="126" fill="#fff1dc" font-family="Georgia, serif" font-size="32" font-weight="700">PUBLIC ROUTE COUNCIL</text>
    <rect x="70" y="462" width="820" height="40" rx="6" fill="#0b0d10" opacity=".68" stroke="#c99058" stroke-width="1.5"/>
    <text x="92" y="488" fill="#b7a083" font-family="Courier New, monospace" font-size="18" font-weight="700" text-anchor="start">Rescue and Lighthouse costs stay on the same board.</text>
  </g>
</svg>